<svg width="30" height="30" viewBox="0 0 30 30" fill="none" xmlns="http://www.w3.org/2000/svg">
<g id="basil:home-solid">
<path id="Vector" d="M17.245 5.17C16.9536 4.8691 16.6048 4.62984 16.2191 4.46644C15.8334 4.30304 15.4189 4.21884 15 4.21884C14.5812 4.21884 14.1666 4.30304 13.7809 4.46644C13.3953 4.62984 13.0464 4.8691 12.755 5.17L6.75626 11.365C6.41251 11.72 6.18126 12.17 6.09126 12.6575C5.36286 16.6301 5.30919 20.6971 5.93251 24.6875L6.15251 26.1C6.22251 26.5462 6.60751 26.875 7.05876 26.875H11.25C11.4158 26.875 11.5747 26.8091 11.6919 26.6919C11.8092 26.5747 11.875 26.4158 11.875 26.25V17.5H18.125V26.25C18.125 26.4158 18.1909 26.5747 18.3081 26.6919C18.4253 26.8091 18.5842 26.875 18.75 26.875H22.9413C23.1597 26.8749 23.371 26.7968 23.5369 26.6547C23.7029 26.5126 23.8126 26.3159 23.8463 26.1L24.0675 24.6875C24.6908 20.6971 24.6371 16.6301 23.9088 12.6575C23.8191 12.1703 23.5873 11.7206 23.2425 11.365L17.245 5.17Z" fill="#70E000"/>
</g>
</svg>
