<svg width="30" height="30" viewBox="0 0 30 30" fill="none" xmlns="http://www.w3.org/2000/svg">
<g id="material-symbols:track-changes-rounded">
<path id="Vector" d="M15 27.5C13.2708 27.5 11.6458 27.1717 10.125 26.515C8.60417 25.8583 7.28125 24.9679 6.15625 23.8437C5.03125 22.7187 4.14083 21.3958 3.485 19.875C2.82917 18.3542 2.50083 16.7292 2.5 15C2.5 13.2708 2.82833 11.6458 3.485 10.125C4.14167 8.60417 5.03208 7.28125 6.15625 6.15625C7.28125 5.03125 8.60417 4.14083 10.125 3.485C11.6458 2.82917 13.2708 2.50083 15 2.5H15.3125C15.5833 2.5 15.8071 2.58875 15.9837 2.76625C16.1604 2.94375 16.2492 3.1675 16.25 3.4375V12.8437C16.625 13.0729 16.9271 13.37 17.1562 13.735C17.3854 14.1 17.5 14.5217 17.5 15C17.5 15.6875 17.255 16.2762 16.765 16.7662C16.275 17.2562 15.6867 17.5008 15 17.5C14.3125 17.5 13.7237 17.255 13.2337 16.765C12.7437 16.275 12.4992 15.6867 12.5 15C12.5 14.5208 12.6146 14.0937 12.8437 13.7187C13.0729 13.3437 13.375 13.0521 13.75 12.8437V10.1562C12.6667 10.4479 11.7708 11.0367 11.0625 11.9225C10.3542 12.8083 10 13.8342 10 15C10 16.375 10.4896 17.5521 11.4687 18.5312C12.4479 19.5104 13.625 20 15 20C16.375 20 17.5521 19.5104 18.5312 18.5312C19.5104 17.5521 20 16.375 20 15C20 14.5208 19.9321 14.0471 19.7962 13.5787C19.6604 13.1104 19.4575 12.6675 19.1875 12.25C19 11.9583 18.9221 11.6717 18.9537 11.39C18.9854 11.1083 19.105 10.8637 19.3125 10.6562C19.5625 10.4062 19.8804 10.2812 20.2662 10.2812C20.6521 10.2812 20.9592 10.4479 21.1875 10.7812C21.6458 11.4479 21.9792 12.1408 22.1875 12.86C22.3958 13.5792 22.5 14.2925 22.5 15C22.5 17.0833 21.7708 18.8542 20.3125 20.3125C18.8542 21.7708 17.0833 22.5 15 22.5C12.9167 22.5 11.1458 21.7708 9.6875 20.3125C8.22917 18.8542 7.5 17.0833 7.5 15C7.5 13.125 8.09375 11.4946 9.28125 10.1087C10.4687 8.72292 11.9583 7.88458 13.75 7.59375V5.0625C11.2708 5.375 9.1925 6.46875 7.515 8.34375C5.8375 10.2187 4.99917 12.4375 5 15C5 17.7917 5.96875 20.1562 7.90625 22.0937C9.84375 24.0312 12.2083 25 15 25C17.7917 25 20.1562 24.0312 22.0937 22.0937C24.0312 20.1562 25 17.7917 25 15C25 13.7708 24.8229 12.6667 24.4687 11.6875C24.1146 10.7083 23.6146 9.80208 22.9687 8.96875C22.7396 8.67708 22.63 8.36458 22.64 8.03125C22.65 7.69792 22.7804 7.40625 23.0312 7.15625C23.2812 6.90625 23.5783 6.78125 23.9225 6.78125C24.2667 6.78125 24.5425 6.91667 24.75 7.1875C25.625 8.25 26.3021 9.42708 26.7812 10.7187C27.2604 12.0104 27.5 13.4375 27.5 15C27.5 16.7292 27.1717 18.3542 26.515 19.875C25.8583 21.3958 24.9679 22.7187 23.8437 23.8437C22.7187 24.9687 21.3958 25.8596 19.875 26.5162C18.3542 27.1729 16.7292 27.5008 15 27.5Z" fill="#B0B0B0"/>
</g>
</svg>
