<svg width="30" height="30" viewBox="0 0 30 30" fill="none" xmlns="http://www.w3.org/2000/svg">
<g id="ph:chat-teardrop-dots-fill">
<path id="Vector" d="M15.4688 2.8125C12.3618 2.81591 9.38306 4.05166 7.18611 6.24861C4.98916 8.44556 3.75341 11.4243 3.75 14.5312V24.4137C3.75062 24.9005 3.94429 25.3672 4.28853 25.7115C4.63278 26.0557 5.09949 26.2494 5.58633 26.25H15.4688C18.5768 26.25 21.5575 25.0154 23.7552 22.8177C25.9529 20.62 27.1875 17.6393 27.1875 14.5312C27.1875 11.4232 25.9529 8.44253 23.7552 6.24484C21.5575 4.04715 18.5768 2.8125 15.4688 2.8125ZM10.3125 16.4062C10.0344 16.4062 9.76249 16.3238 9.53123 16.1693C9.29997 16.0147 9.11973 15.7951 9.01329 15.5381C8.90686 15.2812 8.87901 14.9984 8.93327 14.7257C8.98753 14.4529 9.12146 14.2023 9.31813 14.0056C9.5148 13.809 9.76537 13.675 10.0382 13.6208C10.3109 13.5665 10.5937 13.5944 10.8506 13.7008C11.1076 13.8072 11.3272 13.9875 11.4818 14.2187C11.6363 14.45 11.7188 14.7219 11.7188 15C11.7188 15.373 11.5706 15.7306 11.3069 15.9944C11.0431 16.2581 10.6855 16.4062 10.3125 16.4062ZM15.4688 16.4062C15.1906 16.4062 14.9187 16.3238 14.6875 16.1693C14.4562 16.0147 14.276 15.7951 14.1695 15.5381C14.0631 15.2812 14.0353 14.9984 14.0895 14.7257C14.1438 14.4529 14.2777 14.2023 14.4744 14.0056C14.671 13.809 14.9216 13.675 15.1944 13.6208C15.4672 13.5665 15.7499 13.5944 16.0069 13.7008C16.2639 13.8072 16.4835 13.9875 16.638 14.2187C16.7925 14.45 16.875 14.7219 16.875 15C16.875 15.373 16.7268 15.7306 16.4631 15.9944C16.1994 16.2581 15.8417 16.4062 15.4688 16.4062ZM20.625 16.4062C20.3469 16.4062 20.075 16.3238 19.8437 16.1693C19.6125 16.0147 19.4322 15.7951 19.3258 15.5381C19.2194 15.2812 19.1915 14.9984 19.2458 14.7257C19.3 14.4529 19.434 14.2023 19.6306 14.0056C19.8273 13.809 20.0779 13.675 20.3507 13.6208C20.6234 13.5665 20.9062 13.5944 21.1631 13.7008C21.4201 13.8072 21.6397 13.9875 21.7943 14.2187C21.9488 14.45 22.0312 14.7219 22.0312 15C22.0312 15.373 21.8831 15.7306 21.6194 15.9944C21.3556 16.2581 20.998 16.4062 20.625 16.4062Z" fill="#B0B0B0"/>
</g>
</svg>
